<?xml version="1.0" standalone="no"?>
<!DOCTYPE svg PUBLIC "-//W3C//DTD SVG 20010904//EN"
 "http://www.w3.org/TR/2001/REC-SVG-20010904/DTD/svg10.dtd">
<svg version="1.0" xmlns="http://www.w3.org/2000/svg"
 width="677.000000pt" height="677.000000pt" viewBox="0 0 677.000000 677.000000"
 preserveAspectRatio="xMidYMid meet">
<metadata>
Created by potrace 1.14, written by Peter Selinger 2001-2017
</metadata>
<g transform="translate(0.000000,677.000000) scale(0.100000,-0.100000)"
fill="#000000" stroke="none">
<path d="M3120 6764 c-19 -2 -78 -9 -130 -14 -1107 -124 -2109 -820 -2619
-1819 -185 -362 -288 -692 -348 -1112 -25 -177 -25 -691 0 -868 60 -420 163
-750 348 -1112 467 -915 1343 -1577 2355 -1778 237 -47 335 -55 659 -55 324 0
422 8 659 55 1012 201 1888 863 2355 1778 185 362 288 692 348 1112 25 177 25
691 0 868 -60 420 -163 750 -348 1112 -467 916 -1347 1580 -2359 1778 -215 43
-319 52 -605 56 -154 2 -296 1 -315 -1z"/>
</g>
</svg>
