<?xml version="1.0" standalone="no"?>
<!DOCTYPE svg PUBLIC "-//W3C//DTD SVG 20010904//EN"
 "http://www.w3.org/TR/2001/REC-SVG-20010904/DTD/svg10.dtd">
<svg version="1.0" xmlns="http://www.w3.org/2000/svg"
 width="1280.000000pt" height="1280.000000pt" viewBox="0 0 1280.000000 1280.000000"
 preserveAspectRatio="xMidYMid meet">
<metadata>
Created by potrace 1.14, written by Peter Selinger 2001-2017
</metadata>
<g transform="translate(0.000000,1280.000000) scale(0.100000,-0.100000)"
fill="#000000" stroke="none">
<path d="M6180 9787 c-3 -3 -43 -7 -90 -11 -88 -7 -116 -10 -210 -26 -30 -5
-73 -12 -95 -16 -22 -3 -58 -10 -80 -15 -22 -5 -51 -12 -65 -15 -291 -61 -667
-210 -940 -372 -161 -96 -383 -253 -487 -344 -427 -376 -718 -772 -928 -1264
-115 -268 -215 -642 -240 -899 -4 -38 -10 -79 -12 -90 -9 -37 -11 -550 -3
-625 5 -41 12 -100 15 -130 21 -195 82 -454 162 -690 108 -320 316 -703 520
-960 252 -318 553 -590 888 -801 96 -61 372 -205 465 -243 286 -117 575 -198
835 -232 28 -3 59 -8 70 -10 91 -19 574 -26 730 -11 173 16 360 48 517 87 833
211 1547 724 2020 1451 162 249 306 558 387 829 17 58 35 119 40 135 5 17 12
44 15 60 7 34 11 53 25 110 5 22 12 58 15 80 4 22 11 65 16 95 29 170 35 266
35 525 0 279 -7 369 -46 595 -74 427 -240 853 -481 1230 -26 41 -51 80 -55 85
-5 6 -31 42 -58 80 -60 84 -58 83 -166 209 -456 535 -1066 914 -1744 1085
-137 34 -308 66 -410 76 -38 4 -79 10 -90 12 -26 6 -549 16 -555 10z"/>
</g>
</svg>
